<svg xmlns="http://www.w3.org/2000/svg" width="36.998" height="36.998" viewBox="0 0 36.998 36.998">
  <path id="FontAwsome_user-circle_" data-name="FontAwsome (user-circle)" d="M18.5,8A18.5,18.5,0,1,0,37,26.5,18.5,18.5,0,0,0,18.5,8Zm0,7.161a6.564,6.564,0,1,1-6.564,6.564A6.564,6.564,0,0,1,18.5,15.161Zm0,25.66A14.294,14.294,0,0,1,7.571,35.734a8.317,8.317,0,0,1,7.347-4.461,1.825,1.825,0,0,1,.53.082,9.876,9.876,0,0,0,3.051.515,9.839,9.839,0,0,0,3.051-.515,1.825,1.825,0,0,1,.53-.082,8.317,8.317,0,0,1,7.347,4.461A14.294,14.294,0,0,1,18.5,40.821Z" transform="translate(0 -8)" fill="#bfbfbf"/>
</svg>
