<svg xmlns="http://www.w3.org/2000/svg" width="39.002" height="44.999" viewBox="0 0 39.002 44.999">
  <g id="Group_60" data-name="Group 60" transform="translate(0.046 0.965)">
    <path id="Exclusion_1" data-name="Exclusion 1" d="M33.929,44H4.071A4.1,4.1,0,0,1,0,39.875v-16.5A4.1,4.1,0,0,1,4.071,19.25H6.107V13.063A12.994,12.994,0,0,1,19,0,12.994,12.994,0,0,1,31.893,13.063V19.25h2.036A4.1,4.1,0,0,1,38,23.375v16.5A4.1,4.1,0,0,1,33.929,44ZM18.143,28.875a.5.5,0,0,0-.5.5v7.25a.5.5,0,0,0,.5.5h1.715a.5.5,0,0,0,.5-.5v-7.25a.5.5,0,0,0-.5-.5Zm.857-22a6.155,6.155,0,0,0-6.107,6.187V19.25H25.107V13.063A6.155,6.155,0,0,0,19,6.875Z" transform="translate(0.455 -0.465)" fill="#f5b200" stroke="rgba(0,0,0,0)" stroke-miterlimit="10" stroke-width="1"/>
  </g>
</svg>
